<?xml version="1.0" encoding="UTF-8" standalone="no"?><!DOCTYPE svg PUBLIC "-//W3C//DTD SVG 1.1//EN" "http://www.w3.org/Graphics/SVG/1.1/DTD/svg11.dtd"><svg width="100%" height="100%" viewBox="0 0 1753 1833" version="1.1" xmlns="http://www.w3.org/2000/svg" xmlns:xlink="http://www.w3.org/1999/xlink" xml:space="preserve" xmlns:serif="http://www.serif.com/" style="fill-rule:evenodd;clip-rule:evenodd;stroke-linecap:round;stroke-linejoin:round;stroke-miterlimit:1.5;"><path d="M193.859,807.984c-20.023,-156.558 -35.033,-308.863 -0.752,-419.27c-57.036,47.38 -114.918,92.394 -184.202,105.482c-1.573,0.286 -3.174,-0.333 -4.144,-1.604c-0.971,-1.271 -1.146,-2.979 -0.455,-4.421c76.423,-159.445 159.421,-326.079 287.303,-480.372c0.817,-0.984 2.171,-1.334 3.363,-0.87c1.191,0.463 1.952,1.637 1.89,2.914c-2.114,45.799 13.417,81.288 21.55,118.59c6.084,27.905 12.368,53.984 26.26,78.358c34.902,61.234 43.813,118.738 59.503,182.082c44.595,-38.256 88.886,-59.004 117.24,-69.418c77.859,-28.598 149.235,-66.804 240.811,-76.834c126.466,-13.852 361.458,54.719 542.109,262.814c76.802,-141.038 134.159,-269.975 173.223,-422.711c0.638,-2.51 2.711,-4.397 5.269,-4.799c2.558,-0.402 5.11,0.76 6.486,2.953c40.233,64.092 217.18,345.995 217.18,345.995c0,-0 35.17,117.409 43.544,145.363c0.38,1.267 0.068,2.641 -0.822,3.621c-0.89,0.979 -2.228,1.421 -3.526,1.164c-45.719,-10.901 -128.126,-76.984 -225.554,-154.031l-26.443,408.969c30.956,23.242 74.944,287.414 142.917,600.472c-527.321,470.167 -1059.53,566.985 -1599.58,66.002c50.102,-260.367 99.15,-488.56 156.826,-690.449Z" style="fill:#cfbdd3;stroke:#000;stroke-width:1.5px;"/><path d="M575.585,855.898c-3.298,-4.948 21.324,-17.186 31.917,-18.238c1.267,-0.126 8.483,-2.924 10.422,-1.954c12.858,6.428 16.726,17.377 25.404,26.054c6.155,6.156 17.388,8.072 20.844,14.982c1.897,3.795 6.177,5.841 7.816,9.119c2.955,5.909 1.514,13.219 3.257,20.192c0.821,3.286 1.575,11.453 -0.652,13.679c-11.636,11.636 -24.148,23.497 -33.871,33.22c-2.14,2.141 -14.441,4.67 -18.889,9.119c-1.566,1.565 -8.095,1.116 -9.771,1.954c-6.283,3.141 -30.224,2.996 -35.174,-1.954c-2.522,-2.522 -15.218,-11.783 -16.284,-14.981c-1.902,-5.707 -3.991,-10.587 -6.514,-15.633c-3.835,-7.671 -3.257,-19.719 -3.257,-28.66c0,-2.553 -0.739,-8.38 0.652,-9.771c4.585,-4.585 8.387,-13.518 11.073,-18.89c1.958,-3.916 7.65,-18.238 13.027,-18.238Z" style="fill:#fff;stroke:#000;stroke-width:11.25px;"/><path d="M981.744,924.345c1.358,-1.519 2.405,-3.289 3.081,-5.21c1.395,-4.106 3.486,-9.991 5.031,-13.082c1.724,-3.448 1.564,-18.499 3.257,-20.192c1.59,-1.591 -0.604,-7.864 1.303,-9.771c3.057,-3.058 3.838,-9.701 7.165,-13.027c3.354,-3.355 8.534,-5.278 11.724,-8.468c0.768,-0.768 6.644,0 7.817,0c3.941,0 20.193,7.167 21.495,9.771c1.587,3.175 9.743,4.505 11.724,8.468c2.48,4.959 8.247,7.374 11.074,13.027c4.447,8.894 5.66,17.182 9.77,25.403c1.929,3.857 6.904,18.11 3.908,24.101c-6.319,12.64 -9.747,22.775 -17.586,30.614c-3.06,3.06 -4.802,8.332 -9.12,9.771c-5.179,1.726 -12.361,9.452 -20.843,5.211c-3.517,-1.758 -5.816,-5.839 -9.771,-7.817c-16.715,-8.357 -24.228,-12.503 -36.477,-24.752c-2.031,-2.031 -7.004,-20.221 -3.552,-24.047Z" style="fill:#fff;stroke:#000;stroke-width:11.25px;"/><ellipse cx="613.932" cy="916.989" rx="16.284" ry="16.171" style="stroke:#000;stroke-width:3.71px;"/><ellipse cx="1036.27" cy="930.692" rx="16.284" ry="16.171" style="stroke:#000;stroke-width:3.71px;"/><path d="M856.977,937.97c-2.316,4.632 -4.676,8.701 -6.514,12.376c-1.186,2.372 0,9.095 0,11.725c0,6.19 0.948,29.723 -0.651,34.523c-2.42,7.258 -0.271,21.224 3.908,25.403c1.88,1.88 -1.237,9.251 -0,11.725c4.717,9.435 9.119,26.171 9.119,37.128c0,3.167 1.15,11.877 -0.651,13.678c-1.253,1.254 0.824,6.168 -0,7.817c-2.769,5.537 -5.793,7.746 -9.119,11.073c-7.158,7.158 -7.014,11.073 -21.496,11.073c-2.041,0 -13.386,1.596 -14.981,0c-2.884,-2.883 -9.25,-4.039 -12.376,-7.165c-5.65,-5.65 -6.914,-27.255 -9.771,-35.825c-1.593,-4.78 2.238,-12.46 0,-16.936c-1.474,-2.949 -4.396,-7.898 -9.77,-5.21c-6.646,3.322 -6.361,10.92 -11.725,16.284c-11.92,11.92 -28.033,42.982 -55.366,33.871c-4.42,-1.474 -8.13,-0.313 -11.073,-3.257c-0.051,-0.051 1.337,-5.792 0.651,-7.165c-4.884,-9.769 -2.241,-26.497 1.303,-37.128c1.786,-5.358 2.246,-23.741 5.862,-27.357c6.308,-6.309 8.987,-14.199 14.981,-20.193c0.93,-0.93 1.266,-4.522 2.606,-5.862c3.973,-3.973 9.498,-6.893 13.679,-11.074c7.254,-7.254 10.472,-16.986 17.587,-24.1c5.256,-5.256 8.467,-26.546 8.467,-35.825c0,-1.846 0.539,-13.028 -0.651,-13.028" style="fill:none;stroke:#000;stroke-width:11.25px;"/><path d="M672.639,1361.36c4.741,4.741 8.438,20.813 11.074,23.449c3.695,3.695 6.249,12.764 7.816,14.331c4.454,4.454 8.098,10.051 13.027,14.981c6.699,6.699 17.012,5.249 23.45,8.468c3.666,1.833 29.137,6.036 32.568,2.605c4.057,-4.056 9.938,-11.78 15.633,-13.678c7.949,-2.65 12.5,-13.803 16.936,-18.239c2.592,-2.592 2.405,-8.919 5.211,-11.724c3.228,-3.229 4.264,-7.878 6.513,-12.376c4.705,-9.411 10.456,-17.004 14.982,-26.055c1.129,-2.259 4.105,-3.384 5.211,-5.211c2.443,-4.038 5.026,-10.888 8.467,-14.33c2.177,-2.177 3.227,-6.483 5.211,-8.468c5.993,-5.993 12.835,-12.184 19.541,-18.89c1.792,-1.791 8.404,-10.422 10.422,-10.422" style="fill:none;stroke:#000;stroke-width:11.25px;"/></svg>